<svg width="159" height="56" viewBox="0 0 159 56" fill="none" xmlns="http://www.w3.org/2000/svg">
<mask id="mask0_464_283" style="mask-type:alpha" maskUnits="userSpaceOnUse" x="0" y="0" width="159" height="56">
<rect x="1.49984" y="1.49984" width="156" height="53.0003" rx="26.5002" stroke="black" stroke-width="2.99967"/>
</mask>
<g mask="url(#mask0_464_283)">
<g filter="url(#filter0_f_464_283)">
<ellipse cx="51.5418" cy="36.6581" rx="71.1235" ry="62.7914" fill="#FF3939"/>
</g>
<g filter="url(#filter1_f_464_283)">
<ellipse cx="160.268" cy="23.5054" rx="35.1678" ry="31.0479" fill="#39FFA0"/>
</g>
<g filter="url(#filter2_f_464_283)">
<ellipse cx="108.269" cy="53.4784" rx="71.1235" ry="62.7914" fill="#FF8139"/>
<ellipse cx="108.269" cy="53.4784" rx="71.1235" ry="62.7914" fill="#FF8139"/>
</g>
<g filter="url(#filter3_f_464_283)">
<ellipse cx="3.05182" cy="15.4747" rx="23.3497" ry="20.6143" fill="#FF3998"/>
</g>
</g>
<path d="M48.804 24.5308H47.2592C46.9892 23.8709 46.5892 23.3459 46.0593 22.956C45.5394 22.566 44.7994 22.3711 43.8395 22.3711C42.6397 22.3711 41.6848 22.771 40.9749 23.5709C40.2649 24.3708 39.91 25.3957 39.91 26.6456C39.91 27.8854 40.2649 28.9153 40.9749 29.7352C41.6848 30.5552 42.6447 30.9651 43.8545 30.9651C44.7844 30.9651 45.4994 30.7901 45.9993 30.4402C46.4992 30.0902 46.9142 29.5703 47.2442 28.8803H48.759C48.0291 31.1101 46.3693 32.225 43.7795 32.225C42.0697 32.225 40.7299 31.705 39.76 30.6651C38.8001 29.6153 38.3201 28.2904 38.3201 26.6906C38.3201 25.1208 38.8251 23.8009 39.835 22.731C40.8549 21.6611 42.1947 21.1262 43.8545 21.1262C45.2844 21.1262 46.4093 21.4512 47.2292 22.1011C48.0491 22.741 48.574 23.5509 48.804 24.5308ZM50.2674 28.2054C50.2674 27.0755 50.6373 26.1256 51.3773 25.3557C52.1172 24.5858 53.1071 24.2009 54.3469 24.2009C55.5868 24.2009 56.5667 24.6008 57.2866 25.4007C58.0065 26.1906 58.3665 27.1255 58.3665 28.2054C58.3665 29.3253 58.0065 30.2752 57.2866 31.0551C56.5767 31.825 55.5718 32.21 54.272 32.21C53.0421 32.21 52.0672 31.82 51.3473 31.0401C50.6273 30.2602 50.2674 29.3153 50.2674 28.2054ZM54.3169 31.0401C55.1469 31.0401 55.7818 30.7751 56.2217 30.2452C56.6717 29.7053 56.8967 29.0303 56.8967 28.2204C56.8967 27.4205 56.6617 26.7456 56.1917 26.1956C55.7318 25.6457 55.0969 25.3707 54.2869 25.3707C53.467 25.3707 52.8371 25.6407 52.3972 26.1806C51.9572 26.7206 51.7372 27.3955 51.7372 28.2054C51.7372 28.9753 51.9672 29.6403 52.4272 30.2002C52.8971 30.7601 53.527 31.0401 54.3169 31.0401ZM61.6508 32H60.2259V26.3306C60.2259 25.4307 60.2209 24.7908 60.211 24.4108H61.5908C61.6308 24.7508 61.6508 25.2207 61.6508 25.8207C61.8508 25.3707 62.1757 24.9908 62.6257 24.6808C63.0756 24.3608 63.6656 24.2009 64.3955 24.2009C65.3054 24.2009 66.0203 24.4758 66.5403 25.0258C67.0702 25.5757 67.3352 26.3606 67.3352 27.3805V32H65.8953V27.6355C65.8953 26.1456 65.2654 25.4007 64.0055 25.4007C63.2356 25.4007 62.6507 25.6657 62.2507 26.1956C61.8508 26.7256 61.6508 27.4455 61.6508 28.3554V32ZM70.1399 29.8702V25.5357H68.625V24.4108H70.1399V21.9661H71.5647V24.4108H73.5445V25.5357H71.5647V29.6903C71.5647 30.1402 71.6397 30.4652 71.7897 30.6651C71.9397 30.8551 72.2146 30.9501 72.6146 30.9501C72.9246 30.9501 73.1745 30.9251 73.3645 30.8751V31.925C73.0745 32.025 72.6796 32.075 72.1796 32.075C71.4197 32.075 70.8898 31.905 70.5898 31.565C70.2898 31.2151 70.1399 30.6501 70.1399 29.8702ZM76.4856 26.6156H75.0607C75.0907 26.3356 75.1607 26.0656 75.2707 25.8057C75.3807 25.5457 75.5557 25.2907 75.7957 25.0408C76.0356 24.7808 76.3806 24.5758 76.8305 24.4258C77.2805 24.2758 77.8154 24.2009 78.4354 24.2009C80.6851 24.2009 81.81 25.0658 81.81 26.7956V30.1252C81.81 31.0751 81.835 31.7 81.885 32H80.5201C80.5001 31.9 80.4701 31.5301 80.4301 30.8901C79.9902 31.77 79.0353 32.21 77.5655 32.21C76.5756 32.21 75.8356 31.965 75.3457 31.4751C74.8658 30.9851 74.6258 30.4152 74.6258 29.7652C74.6258 28.1154 75.9406 27.2905 78.5704 27.2905H80.4151V26.8856C80.4151 25.8157 79.7552 25.2807 78.4354 25.2807C77.7754 25.2807 77.3105 25.4007 77.0405 25.6407C76.7705 25.8707 76.5856 26.1956 76.4856 26.6156ZM80.4151 28.6254V28.2954H78.6003C77.7104 28.2954 77.0605 28.4054 76.6506 28.6254C76.2406 28.8453 76.0356 29.2053 76.0356 29.7053C76.0356 30.1052 76.1856 30.4352 76.4856 30.6951C76.7955 30.9551 77.2505 31.0851 77.8504 31.0851C79.5602 31.0851 80.4151 30.2652 80.4151 28.6254ZM91.4006 26.8406H89.9758C89.6058 25.8507 88.8459 25.3557 87.696 25.3557C86.9061 25.3557 86.2862 25.6207 85.8362 26.1506C85.3863 26.6706 85.1613 27.3555 85.1613 28.2054C85.1613 29.0253 85.3863 29.7053 85.8362 30.2452C86.2862 30.7851 86.9061 31.0551 87.696 31.0551C88.8059 31.0551 89.5708 30.5802 89.9908 29.6303H91.4156C91.2156 30.3802 90.8007 31.0001 90.1708 31.4901C89.5408 31.97 88.7159 32.21 87.696 32.21C86.4062 32.21 85.4163 31.835 84.7264 31.0851C84.0364 30.3352 83.6915 29.3853 83.6915 28.2354C83.6915 27.1055 84.0514 26.1506 84.7714 25.3707C85.5013 24.5908 86.4812 24.2009 87.711 24.2009C88.321 24.2009 88.8609 24.2908 89.3309 24.4708C89.8108 24.6408 90.1858 24.8658 90.4557 25.1457C90.7357 25.4257 90.9507 25.7107 91.1007 26.0007C91.2506 26.2806 91.3506 26.5606 91.4006 26.8406ZM93.8384 29.8702V25.5357H92.3236V24.4108H93.8384V21.9661H95.2633V24.4108H97.2431V25.5357H95.2633V29.6903C95.2633 30.1402 95.3383 30.4652 95.4883 30.6651C95.6383 30.8551 95.9132 30.9501 96.3132 30.9501C96.6231 30.9501 96.8731 30.9251 97.0631 30.8751V31.925C96.7731 32.025 96.3782 32.075 95.8782 32.075C95.1183 32.075 94.5884 31.905 94.2884 31.565C93.9884 31.2151 93.8384 30.6501 93.8384 29.8702ZM103.497 27.5005V21.3512H104.997V27.3955C104.997 28.0654 105.087 28.6454 105.267 29.1353C105.457 29.6153 105.712 29.9852 106.032 30.2452C106.352 30.4952 106.692 30.6801 107.052 30.8001C107.422 30.9101 107.822 30.9651 108.252 30.9651C109.282 30.9651 110.062 30.6901 110.591 30.1402C111.121 29.5803 111.386 28.6654 111.386 27.3955V21.3512H112.886V27.3805C112.886 30.6102 111.326 32.225 108.207 32.225C106.717 32.225 105.557 31.84 104.727 31.0701C103.907 30.2902 103.497 29.1003 103.497 27.5005ZM121.627 26.4656H120.187C119.997 25.6657 119.302 25.2657 118.102 25.2657C117.472 25.2657 117.027 25.3707 116.767 25.5807C116.517 25.7807 116.392 26.0207 116.392 26.3006C116.392 26.6106 116.532 26.8506 116.812 27.0205C117.102 27.1905 117.662 27.3305 118.492 27.4405C119.182 27.5305 119.757 27.6555 120.217 27.8155C120.677 27.9654 121.022 28.1504 121.252 28.3704C121.482 28.5804 121.642 28.8003 121.732 29.0303C121.822 29.2503 121.867 29.5153 121.867 29.8252C121.867 30.5452 121.577 31.1251 120.997 31.565C120.427 31.995 119.557 32.21 118.387 32.21C117.287 32.21 116.417 31.995 115.777 31.565C115.137 31.1251 114.752 30.5052 114.622 29.7053H116.062C116.342 30.6551 117.147 31.1301 118.477 31.1301C119.787 31.1301 120.442 30.7301 120.442 29.9302C120.442 29.5803 120.282 29.3053 119.962 29.1053C119.652 28.9053 119.042 28.7504 118.132 28.6404C116.912 28.4904 116.077 28.2254 115.627 27.8455C115.187 27.4655 114.967 26.9955 114.967 26.4356C114.967 25.8457 115.222 25.3257 115.732 24.8758C116.252 24.4258 117.067 24.2009 118.177 24.2009C118.797 24.2009 119.337 24.2758 119.797 24.4258C120.257 24.5658 120.612 24.7558 120.862 24.9958C121.112 25.2357 121.292 25.4757 121.402 25.7157C121.522 25.9557 121.597 26.2056 121.627 26.4656Z" fill="black"/>
<defs>
<filter id="filter0_f_464_283" x="-56.6711" y="-63.2228" width="216.426" height="199.762" filterUnits="userSpaceOnUse" color-interpolation-filters="sRGB">
<feFlood flood-opacity="0" result="BackgroundImageFix"/>
<feBlend mode="normal" in="SourceGraphic" in2="BackgroundImageFix" result="shape"/>
<feGaussianBlur stdDeviation="18.5448" result="effect1_foregroundBlur_464_283"/>
</filter>
<filter id="filter1_f_464_283" x="88.011" y="-44.632" width="144.515" height="136.275" filterUnits="userSpaceOnUse" color-interpolation-filters="sRGB">
<feFlood flood-opacity="0" result="BackgroundImageFix"/>
<feBlend mode="normal" in="SourceGraphic" in2="BackgroundImageFix" result="shape"/>
<feGaussianBlur stdDeviation="18.5448" result="effect1_foregroundBlur_464_283"/>
</filter>
<filter id="filter2_f_464_283" x="0.055748" y="-46.4026" width="216.426" height="199.762" filterUnits="userSpaceOnUse" color-interpolation-filters="sRGB">
<feFlood flood-opacity="0" result="BackgroundImageFix"/>
<feBlend mode="normal" in="SourceGraphic" in2="BackgroundImageFix" result="shape"/>
<feGaussianBlur stdDeviation="18.5448" result="effect1_foregroundBlur_464_283"/>
</filter>
<filter id="filter3_f_464_283" x="-57.3874" y="-42.2291" width="120.878" height="115.408" filterUnits="userSpaceOnUse" color-interpolation-filters="sRGB">
<feFlood flood-opacity="0" result="BackgroundImageFix"/>
<feBlend mode="normal" in="SourceGraphic" in2="BackgroundImageFix" result="shape"/>
<feGaussianBlur stdDeviation="18.5448" result="effect1_foregroundBlur_464_283"/>
</filter>
</defs>
</svg>
