<svg width="159" height="56" viewBox="0 0 159 56" fill="none" xmlns="http://www.w3.org/2000/svg">
<rect width="159" height="56" rx="28" fill="white"/>
<mask id="mask0_464_283" style="mask-type:alpha" maskUnits="userSpaceOnUse" x="0" y="0" width="159" height="56">
<rect x="1.49984" y="1.49984" width="156" height="53.0003" rx="26.5002" stroke="black" stroke-width="2.99967"/>
</mask>
<g mask="url(#mask0_464_283)">
<g filter="url(#filter0_f_464_283)">
<ellipse cx="51.5418" cy="36.6581" rx="71.1235" ry="62.7914" fill="#FF3939"/>
</g>
<g filter="url(#filter1_f_464_283)">
<ellipse cx="160.268" cy="23.5054" rx="35.1678" ry="31.0479" fill="#39FFA0"/>
</g>
<g filter="url(#filter2_f_464_283)">
<ellipse cx="108.269" cy="53.4784" rx="71.1235" ry="62.7914" fill="#FF8139"/>
<ellipse cx="108.269" cy="53.4784" rx="71.1235" ry="62.7914" fill="#FF8139"/>
</g>
<g filter="url(#filter3_f_464_283)">
<ellipse cx="3.05182" cy="15.4747" rx="23.3497" ry="20.6143" fill="#FF3998"/>
</g>
</g>
<path d="M59.4592 22.424H57.6412C57.5572 22.148 57.4552 21.914 57.3352 21.722C57.2272 21.53 57.0532 21.32 56.8132 21.092C56.5732 20.864 56.2252 20.69 55.7692 20.57C55.3132 20.45 54.7672 20.39 54.1312 20.39C53.1952 20.39 52.4572 20.552 51.9172 20.876C51.3772 21.2 51.1072 21.674 51.1072 22.298C51.1072 22.874 51.3352 23.33 51.7912 23.666C52.2592 23.99 53.1772 24.266 54.5452 24.494C55.6612 24.686 56.5852 24.92 57.3172 25.196C58.0492 25.46 58.5952 25.772 58.9552 26.132C59.3152 26.492 59.5612 26.852 59.6932 27.212C59.8252 27.572 59.8912 27.998 59.8912 28.49C59.8912 29.582 59.4352 30.488 58.5232 31.208C57.6112 31.916 56.2432 32.27 54.4192 32.27C52.7032 32.27 51.3652 31.916 50.4052 31.208C49.4452 30.488 48.8512 29.51 48.6232 28.274H50.4772C51.0052 29.978 52.3612 30.83 54.5452 30.83C55.7332 30.83 56.6092 30.632 57.1732 30.236C57.7492 29.84 58.0372 29.318 58.0372 28.67C58.0372 27.998 57.7612 27.464 57.2092 27.068C56.6572 26.672 55.5952 26.342 54.0232 26.078C52.2112 25.766 50.9632 25.328 50.2792 24.764C49.6072 24.188 49.2712 23.426 49.2712 22.478C49.2712 21.386 49.7272 20.528 50.6392 19.904C51.5632 19.268 52.7452 18.95 54.1852 18.95C54.9772 18.95 55.6852 19.034 56.3092 19.202C56.9332 19.358 57.4312 19.556 57.8032 19.796C58.1752 20.036 58.4872 20.324 58.7392 20.66C58.9912 20.984 59.1652 21.284 59.2612 21.56C59.3572 21.836 59.4232 22.124 59.4592 22.424ZM62.2627 28.544V22.892H63.9727V28.22C63.9727 28.988 64.1407 29.612 64.4767 30.092C64.8247 30.56 65.3827 30.794 66.1507 30.794C67.1347 30.794 67.8427 30.494 68.2747 29.894C68.7187 29.294 68.9407 28.334 68.9407 27.014V22.892H70.6507V29.336C70.6507 30.524 70.6567 31.412 70.6687 32H69.0127C68.9887 31.832 68.9647 31.316 68.9407 30.452C68.6887 31.028 68.3167 31.472 67.8247 31.784C67.3327 32.096 66.6187 32.252 65.6827 32.252C64.6507 32.252 63.8227 31.952 63.1987 31.352C62.5747 30.74 62.2627 29.804 62.2627 28.544ZM75.1854 32H73.5474C73.5594 31.232 73.5654 30.188 73.5654 28.868V18.464H75.2754V24.296C75.9834 23.192 77.1114 22.64 78.6594 22.64C79.9194 22.64 80.9634 23.084 81.7914 23.972C82.6194 24.848 83.0334 25.952 83.0334 27.284C83.0334 28.796 82.6134 30.002 81.7734 30.902C80.9454 31.802 79.8714 32.252 78.5514 32.252C76.9794 32.252 75.8754 31.7 75.2394 30.596C75.2394 30.692 75.2334 30.848 75.2214 31.064C75.2214 31.268 75.2154 31.454 75.2034 31.622C75.2034 31.778 75.1974 31.904 75.1854 32ZM78.2814 30.794C79.2774 30.794 80.0214 30.464 80.5134 29.804C81.0174 29.144 81.2694 28.322 81.2694 27.338C81.2694 26.462 81.0114 25.7 80.4954 25.052C79.9914 24.404 79.2534 24.08 78.2814 24.08C77.2734 24.08 76.5054 24.392 75.9774 25.016C75.4614 25.628 75.2034 26.432 75.2034 27.428C75.2034 28.46 75.4794 29.282 76.0314 29.894C76.5834 30.494 77.3334 30.794 78.2814 30.794ZM86.982 32H85.29V25.25C85.29 24.206 85.284 23.42 85.272 22.892H86.928C86.964 23.276 86.982 23.732 86.982 24.26C87.594 23.18 88.572 22.64 89.916 22.64C91.32 22.64 92.256 23.222 92.724 24.386C93.444 23.222 94.488 22.64 95.856 22.64C96.816 22.64 97.596 22.946 98.196 23.558C98.808 24.158 99.114 25.094 99.114 26.366V32H97.404V26.438C97.404 24.854 96.75 24.062 95.442 24.062C94.698 24.062 94.11 24.314 93.678 24.818C93.258 25.322 93.048 26.054 93.048 27.014V32H91.356V26.366C91.356 24.83 90.696 24.062 89.376 24.062C88.56 24.062 87.954 24.344 87.558 24.908C87.174 25.46 86.982 26.204 86.982 27.14V32ZM103.805 32H102.095V22.892H103.805V32ZM103.805 20.516H102.095V18.464H103.805V20.516ZM107.559 29.444V24.242H105.741V22.892H107.559V19.958H109.269V22.892H111.645V24.242H109.269V29.228C109.269 29.768 109.359 30.158 109.539 30.398C109.719 30.626 110.049 30.74 110.529 30.74C110.901 30.74 111.201 30.71 111.429 30.65V31.91C111.081 32.03 110.607 32.09 110.007 32.09C109.095 32.09 108.459 31.886 108.099 31.478C107.739 31.058 107.559 30.38 107.559 29.444Z" fill="black"/>
<defs>
<filter id="filter0_f_464_283" x="-56.6711" y="-63.2228" width="216.426" height="199.762" filterUnits="userSpaceOnUse" color-interpolation-filters="sRGB">
<feFlood flood-opacity="0" result="BackgroundImageFix"/>
<feBlend mode="normal" in="SourceGraphic" in2="BackgroundImageFix" result="shape"/>
<feGaussianBlur stdDeviation="18.5448" result="effect1_foregroundBlur_464_283"/>
</filter>
<filter id="filter1_f_464_283" x="88.011" y="-44.632" width="144.515" height="136.275" filterUnits="userSpaceOnUse" color-interpolation-filters="sRGB">
<feFlood flood-opacity="0" result="BackgroundImageFix"/>
<feBlend mode="normal" in="SourceGraphic" in2="BackgroundImageFix" result="shape"/>
<feGaussianBlur stdDeviation="18.5448" result="effect1_foregroundBlur_464_283"/>
</filter>
<filter id="filter2_f_464_283" x="0.055748" y="-46.4026" width="216.426" height="199.762" filterUnits="userSpaceOnUse" color-interpolation-filters="sRGB">
<feFlood flood-opacity="0" result="BackgroundImageFix"/>
<feBlend mode="normal" in="SourceGraphic" in2="BackgroundImageFix" result="shape"/>
<feGaussianBlur stdDeviation="18.5448" result="effect1_foregroundBlur_464_283"/>
</filter>
<filter id="filter3_f_464_283" x="-57.3874" y="-42.2291" width="120.878" height="115.408" filterUnits="userSpaceOnUse" color-interpolation-filters="sRGB">
<feFlood flood-opacity="0" result="BackgroundImageFix"/>
<feBlend mode="normal" in="SourceGraphic" in2="BackgroundImageFix" result="shape"/>
<feGaussianBlur stdDeviation="18.5448" result="effect1_foregroundBlur_464_283"/>
</filter>
</defs>
</svg>
